<svg width="36" height="36" viewBox="0 0 36 36" fill="none" xmlns="http://www.w3.org/2000/svg">
<path d="M18 6C12.4772 6 8 10.4772 8 16C8 19.3 9.6 22.2 12 24V27C12 28.1046 12.8954 29 14 29H22C23.1046 29 24 28.1046 24 27V24C26.4 22.2 28 19.3 28 16C28 10.4772 23.5228 6 18 6Z" stroke="url(#paint0_linear_eidolon)" stroke-width="2" stroke-linejoin="round" fill="none"/>
<path d="M14 29H22" stroke="url(#paint0_linear_eidolon)" stroke-width="2" stroke-linecap="round"/>
<path d="M14 16C14 13 15.5 12 18 12C20.5 12 22 13.5 22 16C22 18 20 18 20 20" stroke="url(#paint0_linear_eidolon)" stroke-width="1.6" stroke-linecap="round" opacity="0.7"/>
<circle cx="20" cy="22.5" r="1.1" fill="url(#paint0_linear_eidolon)"/>
<defs>
<linearGradient id="paint0_linear_eidolon" x1="8" y1="6" x2="28" y2="29" gradientUnits="userSpaceOnUse">
<stop stop-color="#C084FC"/>
<stop offset="1" stop-color="#7C3AED"/>
</linearGradient>
</defs>
</svg>
